<svg width="30" height="30" viewBox="0 0 30 30" fill="none" xmlns="http://www.w3.org/2000/svg">
<path d="M4.28571 3.05176e-05C1.92188 3.05176e-05 0 1.92191 0 4.28574V25.7143C0 28.0782 1.92188 30 4.28571 30H10.8616V20.2366H7.32589V15H10.8616V12.7433C10.8616 6.91074 13.5 4.20539 19.2321 4.20539C20.317 4.20539 22.192 4.41967 22.9621 4.63396V9.37503C22.5603 9.33485 21.8571 9.30807 20.9799 9.30807C18.1674 9.30807 17.0826 10.3728 17.0826 13.1384V15H22.6808L21.7165 20.2366H17.0759V30H25.7143C28.0781 30 30 28.0782 30 25.7143V4.28574C30 1.92191 28.0781 3.05176e-05 25.7143 3.05176e-05H4.28571Z" fill="#868686"/>
</svg>
