<svg width="30" height="30" viewBox="0 0 30 30" fill="none" xmlns="http://www.w3.org/2000/svg">
<path d="M13.0179 12.0335C12.6278 12.2943 12.293 12.6293 12.0325 13.0194C11.7719 13.4095 11.5908 13.8472 11.4994 14.3073C11.3148 15.2366 11.5069 16.2012 12.0335 16.9889C12.5601 17.7765 13.378 18.3227 14.3073 18.5073C15.2366 18.692 16.2012 18.4998 16.9888 17.9732C17.7765 17.4467 18.3227 16.6287 18.5073 15.6994C18.6919 14.7701 18.4998 13.8055 17.9732 13.0179C17.4466 12.2302 16.6287 11.684 15.6994 11.4994C14.7701 11.3148 13.8055 11.5069 13.0179 12.0335ZM22.5469 7.45316C22.1987 7.10494 21.7768 6.83039 21.3147 6.64958C20.1027 6.17414 17.4576 6.19423 15.75 6.21432C15.4754 6.21432 15.221 6.22101 15 6.22101C14.779 6.22101 14.5179 6.22101 14.2366 6.21432C12.529 6.19423 9.89732 6.16744 8.68527 6.64958C8.22321 6.83039 7.80804 7.10494 7.45312 7.45316C7.09821 7.80137 6.83036 8.22324 6.64955 8.6853C6.17411 9.89735 6.20089 12.5491 6.21429 14.2567C6.21429 14.5313 6.22098 14.7857 6.22098 15C6.22098 15.2143 6.22098 15.4688 6.21429 15.7433C6.20089 17.4509 6.17411 20.1027 6.64955 21.3148C6.83036 21.7768 7.10491 22.192 7.45312 22.5469C7.80134 22.9018 8.22321 23.1697 8.68527 23.3505C9.89732 23.8259 12.5424 23.8058 14.25 23.7857C14.5246 23.7857 14.779 23.779 15 23.779C15.221 23.779 15.4821 23.779 15.7634 23.7857C17.471 23.8058 20.1027 23.8326 21.3147 23.3505C21.7768 23.1697 22.192 22.8951 22.5469 22.5469C22.9018 22.1987 23.1696 21.7768 23.3504 21.3148C23.8326 20.1094 23.8058 17.471 23.7857 15.7567C23.7857 15.4755 23.779 15.2143 23.779 14.9933C23.779 14.7724 23.779 14.5179 23.7857 14.2299C23.8058 12.5224 23.8326 9.88396 23.3504 8.67191C23.1696 8.20985 22.8951 7.79467 22.5469 7.43976V7.45316ZM18.0536 10.4331C19.2648 11.2429 20.1047 12.5008 20.3885 13.9299C20.6723 15.359 20.3768 16.8424 19.567 18.0536C19.166 18.6533 18.6508 19.1682 18.0508 19.5689C17.4508 19.9695 16.7778 20.248 16.0701 20.3886C14.641 20.6724 13.1577 20.3769 11.9464 19.567C10.7352 18.758 9.89493 17.501 9.61049 16.0725C9.32604 14.644 9.62072 13.161 10.4297 11.9498C11.2387 10.7386 12.4957 9.89831 13.9242 9.61386C15.3527 9.32942 16.8356 9.6241 18.0469 10.4331H18.0536ZM20.0089 10.346C19.8013 10.2054 19.6339 10.0045 19.5335 9.77012C19.433 9.53574 19.4129 9.28128 19.4598 9.02682C19.5067 8.77235 19.6339 8.55137 19.808 8.37057C19.9821 8.18976 20.2165 8.06923 20.4643 8.02235C20.7121 7.97548 20.9732 7.99557 21.2076 8.09601C21.442 8.19646 21.6429 8.35717 21.7835 8.56476C21.9241 8.77235 21.9978 9.02012 21.9978 9.27458C21.9978 9.44199 21.9643 9.60941 21.904 9.76342C21.8438 9.91744 21.7433 10.0581 21.6295 10.1786C21.5156 10.2991 21.3683 10.3929 21.2143 10.4599C21.0603 10.5268 20.8929 10.5603 20.7254 10.5603C20.471 10.5603 20.2232 10.4866 20.0156 10.346H20.0089ZM30 4.28574C30 1.92191 28.0781 3.05176e-05 25.7143 3.05176e-05H4.28571C1.92188 3.05176e-05 0 1.92191 0 4.28574V25.7143C0 28.0782 1.92188 30 4.28571 30H25.7143C28.0781 30 30 28.0782 30 25.7143V4.28574ZM23.9062 23.9063C22.654 25.1585 21.1339 25.5536 19.4196 25.6407C17.6518 25.7411 12.3482 25.7411 10.5804 25.6407C8.86607 25.5536 7.34598 25.1585 6.09375 23.9063C4.84152 22.654 4.44643 21.134 4.36607 19.4197C4.26562 17.6518 4.26562 12.3482 4.36607 10.5804C4.45312 8.8661 4.84152 7.34601 6.09375 6.09378C7.34598 4.84155 8.87277 4.44646 10.5804 4.3661C12.3482 4.26566 17.6518 4.26566 19.4196 4.3661C21.1339 4.45316 22.654 4.84155 23.9062 6.09378C25.1585 7.34601 25.5536 8.8661 25.6339 10.5804C25.7344 12.3415 25.7344 17.6384 25.6339 19.413C25.5469 21.1273 25.1585 22.6474 23.9062 23.8996V23.9063Z" fill="#868686"/>
</svg>
