<svg width="194" height="24" viewBox="0 0 194 24" fill="none" xmlns="http://www.w3.org/2000/svg">
<g clip-path="url(#clip0_10_504)">
<path d="M14.8099 0.335938V16.7822C14.8099 19.0648 14.1481 20.8388 12.8245 22.1019C11.4997 23.3661 9.72775 23.9989 7.50633 23.9989C5.28491 23.9989 3.45132 23.3496 2.06961 22.0522C0.690265 20.756 0 18.9429 0 16.6143H4.71207C4.73579 17.6219 4.97655 18.4048 5.43673 18.9642C5.89572 19.5225 6.56345 19.8027 7.43873 19.8027C8.31402 19.8027 8.94261 19.5331 9.39092 18.9973C9.84043 18.4604 10.0646 17.7212 10.0646 16.7822V0.335938H14.8099Z" fill="white"/>
<path d="M77.3641 23.7647L68.8129 13.3264V23.7647H64.1008V0.335938H68.8129V10.8416L77.3641 0.335938H83.0523L73.3577 11.9486L83.3215 23.7635H77.3641V23.7647Z" fill="white"/>
<path d="M149.636 6.69861V23.7646H144.924V6.69861H149.636Z" fill="white"/>
<path d="M158.992 4.12877V10.0031H166.903V13.7285H158.992V19.9376H167.912V23.7647H154.28V0.301636H167.912V4.12877H158.992Z" fill="white"/>
<path d="M47.3293 23.2301C46.0295 22.7156 45.0012 21.9765 44.2469 21.0102C43.4902 20.0452 43.1024 18.9051 43.0798 17.5888H48.0789C48.1453 18.4734 48.4845 19.1712 49.0942 19.6845C49.7061 20.1989 50.5435 20.4556 51.6109 20.4556C52.6783 20.4556 53.5536 20.2131 54.1763 19.7306C54.7989 19.248 55.1097 18.6165 55.1097 17.8359C55.1097 17.1985 54.8985 16.6746 54.4763 16.263C54.0541 15.8526 53.5275 15.5297 52.8942 15.292C52.2608 15.0567 51.3891 14.7941 50.279 14.5067C48.7668 14.0951 47.5405 16.5586 46.5964 16.1589C45.6523 15.758 44.8423 15.1524 44.1639 14.3411C43.4855 13.5298 43.1486 12.4453 43.1486 11.09C43.1486 9.81622 43.4914 8.70688 44.1805 7.76192C44.8695 6.81814 45.8361 6.09317 47.0791 5.58816C48.3244 5.08553 49.7465 4.83362 51.3452 4.83362C53.7457 4.83362 55.6944 5.37292 57.1935 6.45152C58.6926 7.5313 59.5205 9.03566 59.6758 10.967H54.5451C54.4989 10.2266 54.1608 9.61635 53.5287 9.13382C52.8954 8.65129 52.0556 8.40884 51.0119 8.40884C50.1011 8.40884 49.3741 8.62409 48.8297 9.05576C48.2841 9.48744 48.0137 10.1143 48.0137 10.935C48.0137 11.511 48.2189 11.9888 48.6292 12.3684C49.0396 12.7481 49.5508 13.0568 50.1628 13.2921C50.7724 13.5286 51.6334 13.8007 52.7447 14.1093C54.2557 14.5209 55.4892 14.9313 56.4439 15.3417C57.3999 15.7532 58.2218 13.4991 58.9109 14.321C59.5999 15.1442 59.9439 16.2216 59.9439 17.558C59.9439 18.7076 59.6213 19.7767 58.9773 20.7631C58.3333 21.7482 57.3892 22.5347 56.1451 23.1201C54.8997 23.7055 53.4231 23.9977 51.7141 23.9977C50.005 23.9977 48.6304 23.741 47.3317 23.2277L47.3293 23.2301Z" fill="white"/>
<path d="M54.7504 3.96789H48.2723C47.2559 3.96789 46.4316 3.14594 46.4316 2.13238C46.4316 1.11883 47.2559 0.296875 48.2723 0.296875H54.7504C55.7668 0.296875 56.5911 1.11883 56.5911 2.13238C56.5911 3.14594 55.7668 3.96789 54.7504 3.96789Z" fill="white"/>
<path d="M24.3159 19.9883L24.5401 19.2882L25.8305 15.5403L26.0546 14.8685" fill="white"/>
<path d="M34.1338 19.96L33.9084 19.2882L32.6181 15.5403L32.4224 14.9525" fill="white"/>
<path d="M32.0013 0.295654H26.5041L18.0608 23.7635H22.9982L24.3171 19.9872L24.5412 19.2882L25.8316 15.5403L26.0558 14.8686L29.226 5.75015L32.4235 14.9525L32.6204 15.5403L33.9108 19.2882L34.1349 19.96L35.4538 23.7635H40.447L32.0013 0.295654Z" fill="white"/>
<path d="M30.5614 23.0929H27.9426C26.7815 23.0929 25.8386 22.1526 25.8386 20.9948C25.8386 19.837 26.7815 18.8967 27.9426 18.8967H30.5614C31.7225 18.8967 32.6654 19.837 32.6654 20.9948C32.6654 22.1526 31.7225 23.0929 30.5614 23.0929Z" fill="white"/>
<path d="M145.176 3.40374V2.09806C145.176 0.940226 146.119 0 147.28 0C148.441 0 149.384 0.940226 149.384 2.09806V3.40374C149.384 4.56157 148.441 5.5018 147.28 5.5018C146.119 5.5018 145.176 4.56157 145.176 3.40374Z" fill="white"/>
<path d="M93.0161 13.6753V10.3236C93.0161 8.83694 94.2259 7.63062 95.7167 7.63062C97.2075 7.63062 98.4173 8.83694 98.4173 10.3236V13.6753C98.4173 15.1619 97.2075 16.3682 95.7167 16.3682C94.2259 16.3682 93.0161 15.1619 93.0161 13.6753Z" fill="white"/>
<path d="M179.82 13.6753V10.3236C179.82 8.83694 181.03 7.63062 182.52 7.63062C184.011 7.63062 185.221 8.83694 185.221 10.3236V13.6753C185.221 15.1619 184.011 16.3682 182.52 16.3682C181.03 16.3682 179.82 15.1619 179.82 13.6753Z" fill="white"/>
<path d="M141.86 0.335938L135.297 23.7647H129.743L125.332 4.86085L120.72 23.7647L115.201 23.799L108.873 0.335938H113.922L118.063 18.5278L122.842 0.335938H128.094L132.604 18.4273L136.777 0.335938H141.86Z" fill="white"/>
<path d="M89.6751 22.4566C87.8344 21.4265 86.3756 20.0014 85.2987 18.1766C84.2206 16.3529 83.6821 14.2891 83.6821 11.9841C83.6821 9.67904 84.2206 7.64957 85.2987 5.82471C86.3756 4.00102 87.8344 2.57472 89.6751 1.54579C91.5146 0.515684 93.5332 0.0012207 95.7333 0.0012207C97.9334 0.0012207 99.9804 0.515684 101.809 1.54579C103.639 2.57472 105.085 4.00102 106.153 5.82471C107.218 7.64957 107.751 9.70269 107.751 11.9841C107.751 14.2655 107.219 16.3529 106.153 18.1766C105.085 20.0014 103.632 21.4265 101.793 22.4566C99.952 23.4856 97.9334 24 95.7333 24C93.5332 24 91.5146 23.4856 89.6751 22.4566ZM99.4705 18.8483C100.549 18.2108 101.389 17.2978 101.995 16.1128C102.6 14.9254 102.904 13.5511 102.904 11.9841C102.904 10.417 102.602 9.04631 101.995 7.87191C101.388 6.69752 100.547 5.79751 99.4705 5.17069C98.3935 4.54387 97.1494 4.23046 95.7345 4.23046C94.3196 4.23046 93.0707 4.54269 91.9819 5.17069C90.8931 5.79869 90.0463 6.69752 89.4415 7.87191C88.8342 9.04631 88.5318 10.4182 88.5318 11.9841C88.5318 13.5499 88.8342 14.9254 89.4415 16.1128C90.0463 17.2978 90.8931 18.2108 91.9819 18.8483C93.0707 19.4858 94.3207 19.8039 95.7345 19.8039C97.1482 19.8039 98.3947 19.4858 99.4705 18.8483Z" fill="white"/>
<path d="M172.609 5.82349C173.653 3.99981 175.077 2.57942 176.883 1.56113C178.69 0.544034 180.715 0.0343018 182.959 0.0343018C185.585 0.0343018 187.885 0.704878 189.86 2.04721C191.834 3.38955 193.214 5.24753 194 7.61997H188.58C188.042 6.50116 187.285 5.66146 186.308 5.10324C185.333 4.54384 184.204 4.26354 182.925 4.26354C181.556 4.26354 180.339 4.58287 179.273 5.22151C178.208 5.85897 177.377 6.75899 176.781 7.92274C176.187 9.08649 175.89 10.4525 175.89 12.0172C175.89 13.5818 176.187 14.9206 176.781 16.095C177.376 17.2706 178.207 18.1765 179.273 18.814C180.339 19.4514 181.556 19.7696 182.925 19.7696C184.205 19.7696 185.333 19.4857 186.308 18.9145C187.284 18.3433 188.042 17.5 188.58 16.38H194C193.214 18.7761 191.84 20.6388 189.876 21.9694C187.913 23.301 185.607 23.9657 182.959 23.9657C180.715 23.9657 178.69 23.4572 176.883 22.4389C175.077 21.4218 173.653 20.0049 172.609 18.1931C171.565 16.3812 171.043 14.3222 171.043 12.0172C171.043 9.71212 171.565 7.64954 172.609 5.82467V5.82349Z" fill="white"/>
</g>
<defs>
<clipPath id="clip0_10_504">
<rect width="194" height="24" fill="white"/>
</clipPath>
</defs>
</svg>
