<svg width="30" height="30" viewBox="0 0 30 30" fill="none" xmlns="http://www.w3.org/2000/svg">
<path d="M26.7857 3.05176e-05H3.21429C1.43973 3.05176e-05 0 1.43976 0 3.21432V26.7857C0 28.5603 1.43973 30 3.21429 30H26.7857C28.5603 30 30 28.5603 30 26.7857V3.21432C30 1.43976 28.5603 3.05176e-05 26.7857 3.05176e-05ZM9.67634 19.2188C7.32589 19.2188 5.42411 17.317 5.42411 14.9665C5.42411 12.6161 7.32589 10.7143 9.67634 10.7143C12.0268 10.7143 13.9286 12.6161 13.9286 14.9665C13.9286 17.317 12.0268 19.2188 9.67634 19.2188ZM20.3237 19.2188C17.9732 19.2188 16.0714 17.317 16.0714 14.9665C16.0714 12.6161 17.9732 10.7143 20.3237 10.7143C22.6741 10.7143 24.5759 12.6161 24.5759 14.9665C24.5759 17.317 22.6741 19.2188 20.3237 19.2188Z" fill="#868686"/>
</svg>
