<svg width="30" height="30" viewBox="0 0 30 30" fill="none" xmlns="http://www.w3.org/2000/svg">
<path d="M4.28571 3.05176e-05C1.92188 3.05176e-05 0 1.92191 0 4.28574V25.7143C0 28.0782 1.92188 30 4.28571 30H25.7143C28.0781 30 30 28.0782 30 25.7143V4.28574C30 1.92191 28.0781 3.05176e-05 25.7143 3.05176e-05H4.28571ZM24.1808 5.62503L17.2299 13.567L25.4062 24.375H19.0045L13.9955 17.8192L8.2567 24.375H5.07589L12.5089 15.8773L4.66741 5.62503H11.2299L15.7634 11.6183L21 5.62503H24.1808ZM21.6496 22.4732L10.2723 7.42637H8.37723L19.8817 22.4732H21.6429H21.6496Z" fill="#868686"/>
</svg>
